<svg xmlns="http://www.w3.org/2000/svg" width="797" height="955" viewBox="0 0 797 955"><g><g><path fill="#f8f8f8" d="M796.197 298.366c0 164.345-133.334 297.572-297.808 297.572H363.382v-115.06h139.97c87.171 0 157.838-70.612 157.838-157.714v-27.736c0-87.103-70.667-157.713-157.838-157.713h-139.97V.794h135.007c164.474 0 297.808 133.227 297.808 297.572zm-661.135 280.71v41.66c0 115.589 93.778 209.292 209.458 209.292h18.862V712.983h125.08v242.026h-146.92C152.946 955.009.057 802.24.057 613.792V586.02c0-188.448 152.889-341.216 341.487-341.216H488.46v124.98h-143.94c-115.68 0-209.459 93.704-209.459 209.292z"/></g></g></svg>