<svg xmlns="http://www.w3.org/2000/svg" width="797" height="955" viewBox="0 0 797 955"><defs><clipPath id="a"><path fill="#fff" d="M796.134 297.835c0 164.345-133.334 297.572-297.808 297.572H363.32V480.346h139.97c87.172 0 157.838-70.611 157.838-157.713v-27.736c0-87.104-70.666-157.714-157.838-157.714H363.32V.263h135.007C662.8.263 796.134 133.49 796.134 297.835zM135 578.544v41.66c0 115.59 93.778 209.293 209.458 209.293h18.862V712.452h125.079v242.025H341.48C152.882 954.477-.006 801.71-.006 613.261v-27.774c0-188.447 152.888-341.215 341.486-341.215h146.919v124.98H344.458C228.778 369.252 135 462.955 135 578.544z"/></clipPath></defs><path fill="none" stroke="#454545" stroke-miterlimit="20" stroke-width="2" d="M796.134 297.835v0c0 164.345-133.334 297.572-297.808 297.572H363.32V480.346h139.97c87.172 0 157.838-70.611 157.838-157.713v-27.736c0-87.104-70.666-157.714-157.838-157.714H363.32V.263h135.007C662.8.263 796.134 133.49 796.134 297.835zM135 578.544v41.66c0 115.59 93.778 209.293 209.458 209.293h18.862V712.452h125.079v242.025H341.48C152.882 954.477-.006 801.71-.006 613.261v-27.774c0-188.447 152.888-341.215 341.486-341.215h146.919v124.98H344.458C228.778 369.252 135 462.955 135 578.544z" clip-path="url(&quot;#a&quot;)"/></svg>